<svg xmlns="http://www.w3.org/2000/svg" xmlns:xlink="http://www.w3.org/1999/xlink" width="500" zoomAndPan="magnify" viewBox="0 0 375 374.999991" height="500" preserveAspectRatio="xMidYMid meet" version="1.0"><defs><clipPath id="788872634d"><path d="M 0 112.625 L 375 112.625 L 375 266.375 L 0 266.375 Z M 0 112.625 " clip-rule="nonzero"/></clipPath><clipPath id="0f42ad60aa"><path d="M 132 58 L 374.640625 58 L 374.640625 103 L 132 103 Z M 132 58 " clip-rule="nonzero"/></clipPath><clipPath id="04ad03fbf4"><path d="M 330 80 L 374.640625 80 L 374.640625 142 L 330 142 Z M 330 80 " clip-rule="nonzero"/></clipPath><clipPath id="74896dff86"><path d="M 0.238281 0.625 L 155 0.625 L 155 154.375 L 0.238281 154.375 Z M 0.238281 0.625 " clip-rule="nonzero"/></clipPath><clipPath id="f03537628a"><rect x="0" width="375" y="0" height="155"/></clipPath></defs><g clip-path="url(#788872634d)"><g transform="matrix(1, 0, 0, 1, 0, 112)"><g clip-path="url(#f03537628a)"><g clip-path="url(#0f42ad60aa)"><path fill="#7454f7" d="M 374.609375 58.054688 L 132.46875 58.054688 L 132.46875 102.082031 L 374.609375 102.082031 Z M 374.609375 58.054688 " fill-opacity="1" fill-rule="evenodd"/></g><g clip-path="url(#04ad03fbf4)"><path fill="#7454f7" d="M 374.609375 80.070312 L 330.582031 80.070312 L 330.582031 141.507812 L 374.609375 141.507812 Z M 374.609375 80.070312 " fill-opacity="1" fill-rule="evenodd"/></g><path fill="#7454f7" d="M 308.570312 80.070312 L 264.542969 80.070312 L 264.542969 141.507812 L 308.570312 141.507812 Z M 308.570312 80.070312 " fill-opacity="1" fill-rule="evenodd"/><g clip-path="url(#74896dff86)"><path fill="#7454f7" d="M 77.4375 44.464844 C 95.671875 44.464844 110.453125 59.25 110.453125 77.484375 C 110.453125 95.71875 95.671875 110.503906 77.4375 110.503906 C 59.199219 110.503906 44.417969 95.71875 44.417969 77.484375 C 44.417969 59.25 59.199219 44.464844 77.4375 44.464844 Z M 154.480469 77.484375 C 154.480469 34.933594 119.988281 0.4375 77.4375 0.4375 C 34.886719 0.4375 0.390625 34.933594 0.390625 77.484375 C 0.390625 120.035156 34.886719 154.53125 77.4375 154.53125 C 119.988281 154.53125 154.480469 120.035156 154.480469 77.484375 Z M 154.480469 77.484375 " fill-opacity="1" fill-rule="evenodd"/></g></g></g></g></svg>