<svg xmlns="http://www.w3.org/2000/svg" xmlns:xlink="http://www.w3.org/1999/xlink" width="1000" zoomAndPan="magnify" viewBox="0 0 750 749.999995" height="1000" preserveAspectRatio="xMidYMid meet" version="1.0"><path fill="#7e57c2" d="M 0 611.539062 L 0 138.460938 C 0 62.308594 62.308594 0 138.460938 0 L 611.539062 0 C 687.691406 0 750 62.308594 750 138.460938 L 750 611.539062 C 750 687.691406 687.691406 750 611.539062 750 L 138.460938 750 C 62.308594 750 0 687.691406 0 611.539062 Z M 0 611.539062 " fill-opacity="1" fill-rule="nonzero"/><path fill="#ffffff" d="M 639.550781 98.054688 L 542.164062 98.054688 C 537.78125 98.054688 534.203125 101.632812 534.203125 106.015625 C 534.203125 110.402344 537.78125 113.976562 542.164062 113.976562 L 631.589844 113.976562 L 631.589844 209.976562 C 631.589844 214.363281 635.164062 217.9375 639.550781 217.9375 C 643.933594 217.9375 647.511719 214.363281 647.511719 209.976562 L 647.511719 106.132812 C 647.511719 101.632812 643.933594 98.054688 639.550781 98.054688 Z M 639.550781 98.054688 " fill-opacity="1" fill-rule="nonzero"/><path fill="#ffffff" d="M 112.011719 217.941406 C 116.398438 217.941406 119.972656 214.363281 119.972656 209.980469 L 119.972656 113.980469 L 209.398438 113.980469 C 213.78125 113.980469 217.359375 110.402344 217.359375 106.019531 C 217.359375 101.632812 213.78125 98.058594 209.398438 98.058594 L 112.011719 98.058594 C 107.628906 98.058594 104.050781 101.632812 104.050781 106.019531 L 104.050781 209.867188 C 104.050781 214.363281 107.628906 217.941406 112.011719 217.941406 Z M 112.011719 217.941406 " fill-opacity="1" fill-rule="nonzero"/><path fill="#ffffff" d="M 209.398438 635.980469 L 119.972656 635.980469 L 119.972656 539.980469 C 119.972656 535.59375 116.398438 532.019531 112.011719 532.019531 C 107.628906 532.019531 104.050781 535.59375 104.050781 539.980469 L 104.050781 643.828125 C 104.050781 648.210938 107.628906 651.789062 112.011719 651.789062 L 209.398438 651.789062 C 213.78125 651.789062 217.359375 648.210938 217.359375 643.828125 C 217.359375 639.441406 213.898438 635.980469 209.398438 635.980469 Z M 209.398438 635.980469 " fill-opacity="1" fill-rule="nonzero"/><path fill="#ffffff" d="M 263.859375 247.019531 L 263.972656 246.902344 C 269.28125 239.863281 278.050781 235.710938 287.625 235.710938 C 287.742188 235.710938 287.859375 235.710938 288.085938 235.710938 C 339.320312 238.363281 392.625 238.132812 431.394531 203.171875 C 431.511719 203.054688 431.742188 202.824219 431.972656 202.710938 C 442.820312 194.519531 453.203125 204.902344 457.011719 208.710938 C 460.703125 212.402344 462.085938 216.558594 463.125 219.671875 C 463.585938 220.824219 463.933594 222.09375 464.394531 222.902344 C 482.511719 242.402344 492.085938 265.59375 497.855469 287.289062 C 508.816406 244.25 500.28125 206.519531 485.28125 186.441406 C 478.472656 177.324219 466.703125 166.710938 449.28125 167.980469 C 446.625 168.210938 443.972656 166.941406 442.355469 164.863281 C 421.472656 137.171875 385.472656 125.171875 343.816406 132.09375 C 297.664062 139.710938 255.203125 169.132812 244.816406 200.632812 C 230.164062 245.058594 237.894531 279.210938 243.085938 294.210938 C 247.128906 276.324219 254.164062 260.519531 263.859375 247.019531 Z M 263.859375 247.019531 " fill-opacity="1" fill-rule="nonzero"/><path fill="#ffffff" d="M 240.550781 376.59375 C 237.78125 358.25 237.203125 339.789062 238.820312 321.09375 C 236.050781 318.328125 232.125 315.671875 229.703125 316.132812 C 227.742188 316.480469 224.742188 319.710938 222.085938 327.789062 C 215.050781 349.132812 219.433594 362.519531 240.550781 376.59375 Z M 240.550781 376.59375 " fill-opacity="1" fill-rule="nonzero"/><path fill="#ffffff" d="M 371.859375 579.671875 C 312.898438 579.671875 282.089844 545.054688 271.703125 530.402344 C 268.011719 532.132812 263.742188 533.75 259.128906 535.480469 C 250.242188 538.828125 241.9375 541.480469 233.976562 544.019531 C 204.667969 553.25 185.976562 559.132812 177.78125 586.25 L 402.550781 586.25 L 402.550781 576.210938 C 392.628906 578.519531 382.472656 579.671875 371.859375 579.671875 Z M 371.859375 579.671875 " fill-opacity="1" fill-rule="nonzero"/><path fill="#ffffff" d="M 503.28125 372.554688 L 516.664062 365.289062 C 522.550781 358.480469 525.664062 349.363281 525.089844 340.25 C 524.511719 331.132812 520.703125 323.171875 514.128906 317.632812 C 514.011719 317.515625 513.78125 317.285156 513.667969 317.171875 C 513.207031 316.710938 512.628906 316.363281 511.589844 316.480469 C 509.28125 316.710938 506.398438 318.671875 504.4375 321.210938 C 504.667969 324.210938 504.898438 327.210938 505.015625 330.210938 C 505.015625 330.902344 505.128906 331.59375 505.128906 332.289062 C 505.128906 332.980469 505.246094 333.554688 505.246094 334.25 C 505.246094 335.515625 505.359375 336.671875 505.359375 337.941406 C 505.359375 338.980469 505.359375 340.015625 505.359375 341.054688 C 505.359375 341.980469 505.359375 342.902344 505.359375 343.941406 C 505.128906 353.519531 504.550781 363.09375 503.28125 372.554688 Z M 503.28125 372.554688 " fill-opacity="1" fill-rule="nonzero"/><path fill="#ffffff" d="M 263.398438 404.980469 C 270.320312 426.789062 282.320312 445.480469 298.472656 460.363281 C 299.859375 461.054688 301.125 462.09375 301.933594 463.363281 C 308.050781 468.554688 314.742188 473.289062 321.894531 477.324219 C 337.820312 484.59375 353.625 488.402344 371.625 489.210938 C 389.625 488.402344 405.433594 484.710938 421.359375 477.324219 C 424.242188 475.710938 426.898438 473.976562 429.664062 472.25 C 429.78125 472.132812 430.011719 472.015625 430.242188 471.902344 C 451.472656 457.476562 467.394531 437.515625 476.972656 413.402344 C 468.898438 417.671875 461.625 423.324219 455.398438 430.363281 C 448.9375 437.746094 441.78125 446.632812 437.859375 457.363281 C 436.359375 461.515625 431.742188 463.59375 427.589844 462.09375 C 423.4375 460.59375 421.359375 455.976562 422.859375 451.824219 C 427.703125 438.785156 435.898438 428.402344 443.398438 419.863281 C 454.242188 407.515625 468.089844 398.632812 483.203125 393.441406 C 483.78125 391.015625 484.359375 388.710938 484.820312 386.289062 L 484.820312 386.171875 C 484.9375 385.941406 484.9375 385.59375 484.9375 385.363281 L 484.9375 385.25 C 486.089844 379.710938 487.011719 374.054688 487.703125 368.402344 C 487.472656 367.476562 487.472656 366.554688 487.589844 365.515625 C 488.742188 357.210938 489.320312 349.015625 489.4375 340.941406 C 489.4375 340.015625 489.4375 338.980469 489.4375 338.054688 C 489.4375 337.480469 489.4375 336.902344 489.4375 336.441406 C 489.4375 335.863281 489.4375 335.289062 489.4375 334.59375 C 489.4375 333.902344 489.4375 333.210938 489.320312 332.632812 C 489.320312 332.515625 489.320312 332.515625 489.320312 332.402344 C 489.320312 331.941406 489.320312 331.476562 489.203125 331.015625 C 488.859375 325.824219 488.398438 320.515625 487.589844 315.324219 C 483.320312 289.941406 475.472656 257.515625 452.398438 233.054688 C 452.050781 232.710938 451.820312 232.363281 451.589844 232.015625 C 449.972656 229.476562 449.050781 227.054688 448.242188 224.75 C 447.433594 222.441406 446.859375 220.941406 445.933594 219.902344 C 444.78125 218.75 442.585938 216.554688 441.320312 215.75 C 398.28125 253.824219 339.550781 254.171875 287.742188 251.515625 C 283.242188 251.515625 279.320312 253.363281 277.011719 256.25 C 265.820312 271.941406 258.664062 291.324219 255.894531 313.710938 C 252.78125 338.976562 253.820312 363.902344 259.242188 388.25 C 260.28125 389.75 260.742188 391.710938 260.511719 393.554688 C 261.203125 397.480469 262.242188 401.289062 263.398438 404.980469 Z M 325.589844 344.632812 C 325.589844 349.015625 322.011719 352.59375 317.628906 352.59375 C 313.242188 352.59375 309.667969 349.015625 309.667969 344.632812 L 309.667969 337.824219 C 309.667969 333.441406 313.242188 329.863281 317.628906 329.863281 C 322.011719 329.863281 325.589844 333.441406 325.589844 337.824219 Z M 434.050781 344.632812 C 434.050781 349.015625 430.472656 352.59375 426.089844 352.59375 C 421.703125 352.59375 418.128906 349.015625 418.128906 344.632812 L 418.128906 337.824219 C 418.128906 333.441406 421.703125 329.863281 426.089844 329.863281 C 430.472656 329.863281 434.050781 333.441406 434.050781 337.824219 Z M 410.398438 295.59375 L 442.472656 295.59375 C 446.859375 295.59375 450.433594 299.171875 450.433594 303.554688 C 450.433594 307.941406 446.859375 311.515625 442.472656 311.515625 L 410.398438 311.515625 C 406.011719 311.515625 402.4375 307.941406 402.4375 303.554688 C 402.433594 299.171875 406.011719 295.59375 410.398438 295.59375 Z M 363.898438 333.210938 C 363.898438 328.828125 367.472656 325.25 371.859375 325.25 C 376.242188 325.25 379.820312 328.828125 379.820312 333.210938 L 379.820312 387.441406 C 379.820312 391.828125 376.242188 395.402344 371.859375 395.402344 C 367.472656 395.402344 363.898438 391.828125 363.898438 387.441406 Z M 352.128906 425.402344 L 391.589844 425.402344 C 395.972656 425.402344 399.550781 428.980469 399.550781 433.363281 C 399.550781 437.75 395.972656 441.324219 391.589844 441.324219 L 352.128906 441.324219 C 347.742188 441.324219 344.167969 437.75 344.167969 433.363281 C 344.050781 428.980469 347.742188 425.402344 352.128906 425.402344 Z M 301.128906 295.59375 L 333.203125 295.59375 C 337.589844 295.59375 341.164062 299.171875 341.164062 303.554688 C 341.164062 307.941406 337.589844 311.515625 333.203125 311.515625 L 301.128906 311.515625 C 296.742188 311.515625 293.167969 307.941406 293.167969 303.554688 C 293.164062 299.171875 296.742188 295.59375 301.128906 295.59375 Z M 301.128906 295.59375 " fill-opacity="1" fill-rule="nonzero"/><path fill="#ffffff" d="M 406.128906 499.941406 C 405.550781 500.289062 404.859375 500.632812 404.167969 500.75 C 393.550781 503.75 382.707031 505.25 371.859375 505.25 L 371.398438 505.25 C 371.167969 505.25 370.9375 505.25 370.707031 505.25 L 370.589844 505.25 C 350.742188 504.324219 332.515625 499.941406 314.976562 491.863281 C 314.742188 491.75 314.628906 491.632812 314.398438 491.515625 C 310.589844 489.324219 306.898438 487.132812 303.4375 484.710938 C 303.4375 502.59375 301.246094 513.09375 286.015625 523.015625 C 295.707031 536.054688 322.246094 563.75 371.976562 563.75 C 382.820312 563.75 393.207031 562.363281 403.015625 559.710938 L 418.707031 504.671875 L 418.707031 504.554688 C 417.4375 501.207031 418.707031 497.515625 421.359375 495.4375 L 421.589844 494.746094 C 416.398438 496.710938 411.320312 498.441406 406.128906 499.941406 Z M 406.128906 499.941406 " fill-opacity="1" fill-rule="nonzero"/><path fill="#ffffff" d="M 639.550781 532.019531 C 635.164062 532.019531 631.589844 535.59375 631.589844 539.980469 L 631.589844 635.863281 L 590.859375 635.863281 C 586.472656 635.863281 582.898438 639.441406 582.898438 643.824219 C 582.898438 648.210938 586.472656 651.785156 590.859375 651.785156 L 639.550781 651.785156 C 643.933594 651.785156 647.511719 648.210938 647.511719 643.824219 L 647.511719 539.976562 C 647.511719 535.59375 643.933594 532.019531 639.550781 532.019531 Z M 639.550781 532.019531 " fill-opacity="1" fill-rule="nonzero"/><path fill="#ffffff" d="M 520.589844 503.519531 C 521.859375 499.25 519.550781 494.867188 515.28125 493.480469 C 511.011719 492.210938 506.628906 494.519531 505.242188 498.789062 C 495.433594 530.519531 464.625 556.59375 430.125 562.019531 C 425.742188 562.710938 422.742188 566.75 423.433594 571.132812 C 424.011719 575.058594 427.472656 577.828125 431.28125 577.828125 C 431.742188 577.828125 432.089844 577.828125 432.550781 577.710938 C 473.511719 571.363281 508.820312 541.480469 520.589844 503.519531 Z M 520.589844 503.519531 " fill-opacity="1" fill-rule="nonzero"/><path fill="#ffffff" d="M 615.089844 518.980469 C 615.089844 516.210938 615.4375 513.328125 615.78125 510.210938 C 616.242188 505.941406 616.820312 501.441406 616.472656 496.59375 C 613.472656 456.554688 598.472656 427.019531 570.664062 406.25 C 552.203125 392.515625 529.472656 386.75 507.320312 388.480469 L 499.703125 392.632812 C 498.664062 397.132812 497.511719 401.75 496.242188 406.25 C 518.28125 401.054688 542.394531 405.09375 561.089844 419.054688 C 585.089844 436.824219 597.898438 462.554688 600.550781 497.75 C 600.78125 501.09375 600.433594 504.671875 599.972656 508.363281 C 599.511719 511.824219 599.164062 515.402344 599.164062 519.210938 C 599.164062 523.59375 602.742188 527.058594 607.125 527.058594 L 607.242188 527.058594 C 611.511719 527.054688 615.089844 523.480469 615.089844 518.980469 Z M 615.089844 518.980469 " fill-opacity="1" fill-rule="nonzero"/><path fill="#ffffff" d="M 532.011719 520.132812 C 532.9375 537.09375 539.628906 553.59375 550.9375 566.515625 C 562.820312 580.015625 578.628906 588.324219 595.589844 589.824219 C 595.820312 589.824219 596.050781 589.824219 596.28125 589.824219 C 600.320312 589.824219 603.898438 586.710938 604.242188 582.554688 C 604.703125 578.171875 601.472656 574.25 597.089844 573.902344 C 571.128906 571.480469 549.550781 547.480469 547.9375 519.210938 C 547.703125 515.980469 547.9375 512.632812 548.050781 509.058594 C 548.28125 503.519531 548.511719 497.867188 547.703125 491.867188 C 545.859375 479.519531 538.9375 469.367188 528.898438 464.058594 C 519.4375 459.097656 508.359375 459.097656 498.320312 463.941406 C 490.703125 467.632812 485.28125 473.519531 481.242188 482.519531 C 471.320312 504.210938 451.820312 521.171875 428.28125 528.558594 L 423.550781 545.171875 C 424.9375 545.632812 426.4375 545.632812 427.9375 545.289062 C 457.9375 537.558594 483.203125 516.558594 495.667969 489.210938 C 498.207031 483.671875 500.976562 480.445312 505.242188 478.480469 C 510.667969 475.828125 516.4375 475.828125 521.398438 478.367188 C 526.9375 481.25 530.742188 487.132812 531.78125 494.40625 C 532.472656 498.789062 532.242188 503.519531 532.011719 508.480469 C 532.011719 512.171875 531.898438 516.09375 532.011719 520.132812 Z M 532.011719 520.132812 " fill-opacity="1" fill-rule="nonzero"/><path fill="#ffffff" d="M 610.933594 551.863281 C 611.742188 547.480469 608.859375 543.324219 604.585938 542.515625 C 591.203125 539.976562 581.855469 529.015625 581.742188 515.75 C 581.742188 513.210938 581.742188 510.671875 581.855469 507.902344 C 582.085938 496.59375 582.316406 484.824219 577.933594 473.054688 C 567.546875 445.132812 550.355469 429.554688 525.203125 425.402344 C 511.585938 423.09375 498.546875 424.824219 487.125 429.785156 C 476.625 451.476562 461.046875 469.824219 441.316406 483.671875 L 434.625 506.863281 C 449.277344 499.9375 460.007812 488.054688 468.203125 469.9375 C 478.007812 448.246094 498.894531 437.171875 522.664062 441.207031 C 541.816406 444.4375 554.738281 456.324219 563.046875 478.707031 C 566.394531 487.59375 566.164062 497.398438 566.046875 507.667969 C 566.046875 510.320312 565.929688 513.09375 565.929688 515.859375 C 566.046875 536.859375 580.816406 554.285156 601.699219 558.207031 C 602.160156 558.324219 602.738281 558.324219 603.199219 558.324219 C 606.898438 558.324219 610.242188 555.671875 610.933594 551.863281 Z M 610.933594 551.863281 " fill-opacity="1" fill-rule="nonzero"/><path fill="#ffffff" d="M 572.28125 604.132812 C 558.089844 596.980469 544.242188 584.054688 529.933594 564.785156 C 526.242188 559.824219 521.742188 558.4375 518.625 558.210938 C 510.550781 557.515625 503.511719 563.285156 498.78125 567.671875 C 487.011719 578.863281 470.625 587.054688 450.085938 592.015625 C 445.820312 593.054688 443.164062 597.324219 444.203125 601.710938 C 445.242188 605.976562 449.511719 608.632812 453.894531 607.59375 C 477.203125 601.941406 496.011719 592.363281 509.855469 579.210938 C 514.007812 575.285156 516.203125 574.363281 517.007812 574.132812 L 517.125 574.25 C 532.933594 595.59375 548.625 609.902344 565.125 618.324219 C 566.277344 618.902344 567.546875 619.132812 568.703125 619.132812 C 571.585938 619.132812 574.46875 617.515625 575.855469 614.75 C 577.820312 610.941406 576.203125 606.09375 572.28125 604.132812 Z M 572.28125 604.132812 " fill-opacity="1" fill-rule="nonzero"/><path fill="#ffffff" d="M 543.089844 620.519531 C 537.898438 620.519531 534.664062 618.328125 529.472656 614.519531 C 526.359375 612.210938 522.78125 609.558594 518.28125 607.480469 C 505.703125 601.828125 495.78125 607.710938 488.511719 611.980469 C 485.28125 613.941406 482.28125 615.671875 479.28125 616.59375 C 475.011719 617.75 472.589844 622.25 473.742188 626.402344 C 474.894531 630.671875 479.394531 633.09375 483.550781 631.941406 C 488.511719 630.558594 492.78125 628.019531 496.589844 625.710938 C 503.859375 621.328125 507.089844 619.941406 511.589844 622.019531 C 514.472656 623.402344 517.128906 625.25 519.898438 627.328125 C 525.4375 631.480469 532.242188 636.558594 542.972656 636.558594 L 543.089844 636.558594 C 547.472656 636.558594 551.050781 632.980469 551.050781 628.480469 C 551.050781 623.980469 547.472656 620.519531 543.089844 620.519531 Z M 543.089844 620.519531 " fill-opacity="1" fill-rule="nonzero"/></svg>